<?xml version="1.0" encoding="UTF-8" standalone="no" ?>
<!DOCTYPE svg PUBLIC "-//W3C//DTD SVG 1.1//EN" "http://www.w3.org/Graphics/SVG/1.1/DTD/svg11.dtd">
<svg xmlns="http://www.w3.org/2000/svg" xmlns:xlink="http://www.w3.org/1999/xlink" version="1.1" width="640" height="480" viewBox="0 0 640 480" xml:space="preserve">
<desc>Created with Fabric.js 3.6.6</desc>
<defs>
</defs>
<g transform="matrix(4.28 0 0 4.28 323.04 233.04)"  >
<circle style="stroke: rgb(0,0,0); stroke-width: 8; stroke-dasharray: none; stroke-linecap: butt; stroke-dashoffset: 0; stroke-linejoin: miter; stroke-miterlimit: 4; fill: rgb(255,255,255); fill-rule: nonzero; opacity: 1;" vector-effect="non-scaling-stroke"  cx="0" cy="0" r="40" />
</g>
<g transform="matrix(18.38 0 0 18.38 320.75 239.75)"  >
<path style="stroke: none; stroke-width: 1; stroke-dasharray: none; stroke-linecap: butt; stroke-dashoffset: 0; stroke-linejoin: miter; stroke-miterlimit: 4; fill: rgb(0,0,0); fill-rule: nonzero; opacity: 1;"  transform=" translate(-12, -12)" d="M 19 0 h -14 c -2.761 0 -5 2.239 -5 5 v 14 c 0 2.761 2.239 5 5 5 h 14 c 2.762 0 5 -2.239 5 -5 v -14 c 0 -2.761 -2.238 -5 -5 -5 z m -4.466 19.59 c -0.405 0.078 -0.534 -0.171 -0.534 -0.384 v -2.195 c 0 -0.747 -0.262 -1.233 -0.55 -1.481 c 1.782 -0.198 3.654 -0.875 3.654 -3.947 c 0 -0.874 -0.312 -1.588 -0.823 -2.147 c 0.082 -0.202 0.356 -1.016 -0.079 -2.117 c 0 0 -0.671 -0.215 -2.198 0.82 c -0.64 -0.18 -1.324 -0.267 -2.004 -0.271 c -0.68 0.003 -1.364 0.091 -2.003 0.269 c -1.528 -1.035 -2.2 -0.82 -2.2 -0.82 c -0.434 1.102 -0.16 1.915 -0.077 2.118 c -0.512 0.56 -0.824 1.273 -0.824 2.147 c 0 3.064 1.867 3.751 3.645 3.954 c -0.229 0.2 -0.436 0.552 -0.508 1.07 c -0.457 0.204 -1.614 0.557 -2.328 -0.666 c 0 0 -0.423 -0.768 -1.227 -0.825 c 0 0 -0.78 -0.01 -0.055 0.487 c 0 0 0.525 0.246 0.889 1.17 c 0 0 0.463 1.428 2.688 0.944 v 1.489 c 0 0.211 -0.129 0.459 -0.528 0.385 c -3.18 -1.057 -5.472 -4.056 -5.472 -7.59 c 0 -4.419 3.582 -8 8 -8 s 8 3.581 8 8 c 0 3.533 -2.289 6.531 -5.466 7.59 z" stroke-linecap="round" />
</g>
</svg>